<?xml version="1.0" encoding="utf-8"?>
<!-- Generator: Adobe Illustrator 27.8.0, SVG Export Plug-In . SVG Version: 6.00 Build 0)  -->
<svg version="1.1" id="Layer_1" xmlns="http://www.w3.org/2000/svg" xmlns:xlink="http://www.w3.org/1999/xlink" x="0px" y="0px"
	 viewBox="0 0 512 512" style="enable-background:new 0 0 512 512;" xml:space="preserve">
<style type="text/css">
	.st0{fill:#212121;}
</style>
<path class="st0" d="M278.4,29l55.5,112.4c5.6,11.4,16.4,19.2,29,21.1l124,18c20.1,2.9,28.1,27.6,13.6,41.8l-89.8,87.5
	c-9.1,8.8-13.2,21.6-11.1,34.1l21.2,123.5c3.4,20-17.6,35.3-35.6,25.8l-111-58.3c-11.2-5.9-24.6-5.9-35.8,0l-111,58.3
	c-18,9.5-39-5.8-35.6-25.8l21.2-123.5c2.1-12.5-2-25.2-11.1-34.1l-89.8-87.5c-14.5-14.2-6.5-38.9,13.6-41.8l124-18
	c12.5-1.8,23.4-9.7,29-21.1L234.4,29C243.4,10.7,269.4,10.7,278.4,29z"/>
</svg>
