<?xml version="1.0" encoding="utf-8"?>
<!-- Generator: Adobe Illustrator 27.8.0, SVG Export Plug-In . SVG Version: 6.00 Build 0)  -->
<svg version="1.1" id="Layer_1" xmlns="http://www.w3.org/2000/svg" xmlns:xlink="http://www.w3.org/1999/xlink" x="0px" y="0px"
	 viewBox="0 0 512 512" style="enable-background:new 0 0 512 512;" xml:space="preserve">
<style type="text/css">
	.st0{fill:#212121;}
</style>
<path class="st0" d="M256.6,9.8C120.3,9.8,9.8,120.3,9.8,256.6s110.5,246.7,246.8,246.7c136.3,0,246.7-110.4,246.7-246.7
	S392.9,9.8,256.6,9.8z M347.1,353.6c-13.2,13.2-34.7,13.2-48,0l-65.2-65.2c-1.1-1.1-2.1-2.2-3-3.5c-5.1-5.9-8.2-13.7-8.2-22.2V112.1
	c0-18.7,15.3-33.9,34-33.9c9.3,0,17.8,3.7,24,9.9c6,6.1,9.9,14.6,9.9,24v137.1l56.6,56.6C360.3,319,360.3,340.4,347.1,353.6z"/>
</svg>
