<?xml version="1.0" encoding="utf-8"?>
<!-- Generator: Adobe Illustrator 27.8.0, SVG Export Plug-In . SVG Version: 6.00 Build 0)  -->
<svg version="1.1" id="Layer_1" xmlns="http://www.w3.org/2000/svg" xmlns:xlink="http://www.w3.org/1999/xlink" x="0px" y="0px"
	 viewBox="0 0 220.8 50" style="enable-background:new 0 0 220.8 50;" xml:space="preserve">
<style type="text/css">
	.st0{fill:#212121;}
</style>
<path class="st0" d="M79.2,13.1c-9.3,0-16.9,7.9-16.9,17.8c0,9.8,7.6,17.8,16.9,17.8c9.3,0,16.9-7.9,16.9-17.8
	C96.1,21,88.6,13.1,79.2,13.1z M79.2,40c-4.8,0-8.7-4.1-8.7-9.2c0-5,3.9-9.2,8.7-9.2c4.8,0,8.7,4.1,8.7,9.2C87.9,35.9,84,40,79.2,40
	z"/>
<path class="st0" d="M158.5,28.7v3.8c0.1-0.6,0.1-1.2,0.1-1.9S158.5,29.4,158.5,28.7z"/>
<path class="st0" d="M150.4,1.4v14c-2.5-1.6-5.5-2.5-8.7-2.5c-9.3,0-16.9,7.9-16.9,17.8c0,9.8,7.6,17.8,16.9,17.8
	c3.2,0,6.2-0.9,8.7-2.5v2.5h8.1V1.4H150.4z M141.6,39.8c-4.8,0-8.7-4.1-8.7-9.2s3.9-9.2,8.7-9.2c4.8,0,8.7,4.1,8.7,9.2
	S146.5,39.8,141.6,39.8z"/>
<rect x="165.2" y="1.4" class="st0" width="8.1" height="46.9"/>
<path class="st0" d="M203.7,34.4c-1.4,3.2-4.4,5.3-7.9,5.3c-0.7,0-1.4-0.1-2-0.3l15.8-19l0,0l0.1-0.1c-3.1-4.6-8.1-7.6-13.8-7.6
	c-9.3,0-16.9,7.9-16.9,17.8c0,9.8,7.6,17.8,16.9,17.8c5.8,0,11-3.1,14-7.8L203.7,34.4z M187,30.6c0-5,3.9-9.2,8.7-9.2
	c0.8,0,1.5,0.1,2.2,0.3l-10.3,12.4C187.3,33.1,187,31.9,187,30.6z"/>
<path class="st0" d="M123.2,14.9v8.6h-8.6c-5.9,0-5.6,6-5.6,6v18.9h-8.5V29.5c0-15.4,14.1-14.6,14.1-14.6H123.2z"/>
<rect x="100.5" y="29.5" class="st0" width="0" height="18.9"/>
<rect x="109" y="29.5" class="st0" width="0" height="18.9"/>
<path class="st0" d="M70.5,2.6L44.1,48.3v0.1L36,48.2l0.5-29L21.1,45.9c-0.9,1.6-2.6,2.6-4.4,2.6h-5.1V1.6h8.1v30.7L34.3,6.8
	c1.6-2.7,4.5-4.4,7.6-4.3l3,0.1l-0.5,29L61.2,2.5L70.5,2.6z"/>
</svg>
